<svg width="20" height="20" viewBox="0 0 20 20" fill="none" xmlns="http://www.w3.org/2000/svg">
<g clip-path="url(#clip0_1467_23396)">
<path d="M9.99984 1.6665C5.39567 1.6665 1.66651 5.39567 1.66651 9.99984C1.66556 11.7492 2.21552 13.4545 3.23835 14.8737C4.26119 16.293 5.70496 17.3541 7.36484 17.9065C7.78151 17.979 7.93734 17.729 7.93734 17.5098C7.93734 17.3123 7.92651 16.6565 7.92651 15.9582C5.83317 16.344 5.29151 15.4482 5.12484 14.979C5.03067 14.739 4.62484 13.9998 4.27067 13.8015C3.97901 13.6457 3.56234 13.2598 4.25984 13.2498C4.91651 13.239 5.38484 13.854 5.54151 14.104C6.2915 15.364 7.48984 15.0098 7.96817 14.7915C8.04151 14.2498 8.25984 13.8857 8.49984 13.6773C6.64567 13.469 4.70817 12.7498 4.70817 9.56234C4.70817 8.65567 5.03067 7.9065 5.56234 7.32234C5.47901 7.114 5.18734 6.25984 5.64567 5.114C5.64567 5.114 6.34317 4.89567 7.93734 5.969C8.61572 5.78072 9.31664 5.68596 10.0207 5.68734C10.729 5.68734 11.4373 5.78067 12.104 5.96817C13.6973 4.88484 14.3957 5.11484 14.3957 5.11484C14.854 6.26067 14.5623 7.11484 14.479 7.32317C15.0098 7.9065 15.3332 8.64567 15.3332 9.56234C15.3332 12.7607 13.3857 13.469 11.5315 13.6773C11.8332 13.9373 12.094 14.4373 12.094 15.219C12.094 16.3332 12.0832 17.229 12.0832 17.5107C12.0832 17.729 12.2398 17.989 12.6565 17.9057C14.3107 17.3472 15.7481 16.284 16.7664 14.8658C17.7847 13.4476 18.3327 11.7458 18.3332 9.99984C18.3332 5.39567 14.604 1.6665 9.99984 1.6665Z" fill="#616161"/>
</g>
<defs>
<clipPath id="clip0_1467_23396">
<rect width="20" height="20" fill="white"/>
</clipPath>
</defs>
</svg>
