<svg width="18" height="16" viewBox="0 0 18 16" fill="none" xmlns="http://www.w3.org/2000/svg">
<path d="M9 9.24998C8.66848 9.24998 8.35054 9.11829 8.11612 8.88387C7.8817 8.64945 7.75 8.3315 7.75 7.99998C7.75 7.66846 7.8817 7.35052 8.11612 7.1161C8.35054 6.88168 8.66848 6.74998 9 6.74998C9.33152 6.74998 9.64946 6.88168 9.88388 7.1161C10.1183 7.35052 10.25 7.66846 10.25 7.99998C10.25 8.3315 10.1183 8.64945 9.88388 8.88387C9.64946 9.11829 9.33152 9.24998 9 9.24998ZM8.56 11.745C8.70583 11.92 8.8525 12.09 9 12.2525C9.1475 12.09 9.29417 11.9208 9.44 11.745C9.1467 11.7512 8.8533 11.7512 8.56 11.745ZM6.8975 11.6408C6.25755 11.5742 5.62183 11.4718 4.99333 11.3341C4.93083 11.6258 4.88333 11.9091 4.85167 12.1808C4.69333 13.5 4.91417 14.3016 5.25 14.495C5.58583 14.6891 6.39 14.4791 7.45417 13.6833C7.67333 13.5191 7.89417 13.3366 8.11583 13.1375C7.68208 12.6617 7.27533 12.1621 6.8975 11.6408ZM13.0067 11.3341C12.4092 11.4675 11.7708 11.5708 11.1025 11.6408C10.7247 12.1621 10.3179 12.6617 9.88417 13.1375C10.1058 13.3375 10.3267 13.5191 10.5458 13.6833C11.61 14.4791 12.4142 14.6891 12.75 14.495C13.0858 14.3016 13.3058 13.5 13.1492 12.1808C13.1148 11.8966 13.0675 11.6141 13.0075 11.3341H13.0067ZM14.215 11.0116C14.6958 13.2108 14.4433 14.9616 13.375 15.5783C12.3067 16.195 10.6642 15.5383 9 14.0225C7.33583 15.5383 5.69333 16.1941 4.625 15.5775C3.55667 14.9608 3.30417 13.2108 3.78417 11.0108C1.63917 10.3283 0.25 9.23332 0.25 7.99998C0.25 6.76665 1.63917 5.67248 3.78417 4.98832C3.30417 2.78915 3.55667 1.03832 4.625 0.42165C5.69333 -0.195017 7.33583 0.46165 9 1.97748C10.6642 0.46165 12.3067 -0.194183 13.375 0.422483C14.4433 1.03915 14.6958 2.78915 14.2158 4.98915C16.3608 5.67165 17.75 6.76665 17.75 7.99998C17.75 9.23332 16.3608 10.3275 14.2158 11.0116H14.215ZM8.115 2.86248C7.90308 2.67065 7.68257 2.48852 7.45417 2.31665C6.39 1.52082 5.58583 1.31082 5.25 1.50498C4.91417 1.69832 4.69417 2.49998 4.85083 3.81915C4.88417 4.09165 4.93083 4.37415 4.9925 4.66582C5.62127 4.52809 6.25727 4.42571 6.8975 4.35915C7.29333 3.81498 7.70167 3.31415 8.11583 2.86248H8.115ZM11.1025 4.35915C11.7708 4.42915 12.4092 4.53332 13.0067 4.66582C13.0692 4.37415 13.1167 4.09082 13.1483 3.81915C13.3067 2.49998 13.0858 1.69832 12.75 1.50498C12.4142 1.31082 11.61 1.52082 10.5458 2.31665C10.3171 2.4885 10.0964 2.67063 9.88417 2.86248C10.2983 3.31415 10.7067 3.81498 11.1025 4.35915ZM9.44 4.25498C9.29417 4.07998 9.1475 3.90998 9 3.74748C8.8525 3.90998 8.70583 4.07915 8.56 4.25498C8.8533 4.24876 9.1467 4.24876 9.44 4.25498ZM5.97667 10.2533C5.82463 10.0026 5.67793 9.74862 5.53667 9.49165C5.4575 9.70582 5.38417 9.91665 5.3175 10.1258C5.53167 10.1725 5.75167 10.215 5.97583 10.2533H5.97667ZM7.58667 10.4483C8.52759 10.5182 9.47241 10.5182 10.4133 10.4483C10.9443 9.66827 11.4167 8.84992 11.8267 7.99998C11.4167 7.15005 10.9443 6.33169 10.4133 5.55165C9.47241 5.48176 8.52759 5.48176 7.58667 5.55165C7.05566 6.33169 6.58326 7.15005 6.17333 7.99998C6.58326 8.84992 7.05566 9.66827 7.58667 10.4483ZM12.4633 6.50832C12.5425 6.29415 12.6158 6.08332 12.6825 5.87415C12.464 5.82674 12.2445 5.78423 12.0242 5.74665C12.1759 5.99741 12.3223 6.25135 12.4633 6.50832ZM4.10833 6.19748C3.825 6.28915 3.55667 6.38915 3.305 6.49748C2.08417 7.02081 1.5 7.61248 1.5 7.99998C1.5 8.38748 2.08333 8.97915 3.305 9.50248C3.55667 9.61082 3.825 9.71082 4.10833 9.80248C4.29333 9.21915 4.5225 8.61415 4.79583 7.99998C4.53319 7.41246 4.30366 6.81068 4.10833 6.19748ZM5.31667 5.87415C5.38417 6.08248 5.4575 6.29415 5.53667 6.50748C5.67794 6.25079 5.82464 5.99712 5.97667 5.74665C5.75167 5.78498 5.53167 5.82748 5.3175 5.87415H5.31667ZM13.8917 9.80248C14.175 9.71082 14.4433 9.61082 14.695 9.50248C15.9158 8.97915 16.5 8.38748 16.5 7.99998C16.5 7.61248 15.9167 7.02081 14.695 6.49748C14.4319 6.3854 14.1638 6.2853 13.8917 6.19748C13.7067 6.78082 13.4775 7.38582 13.2042 7.99998C13.4775 8.61415 13.7067 9.21832 13.8917 9.80248ZM12.6833 10.1258C12.6158 9.91748 12.5425 9.70582 12.4633 9.49248C12.3221 9.74917 12.1754 10.0028 12.0233 10.2533C12.2483 10.215 12.4683 10.1725 12.6825 10.1258H12.6833Z" fill="#616161"/>
</svg>
