<svg width="16" height="15" viewBox="0 0 16 15" fill="none" xmlns="http://www.w3.org/2000/svg">
<path d="M4.50677 12.9194C7.74375 13.3611 10.9229 13.7955 14.1651 14.2382C13.0604 12.3991 11.9844 10.6069 10.8995 8.80016C8.77396 10.17 6.66823 11.5267 4.50729 12.9194H4.50677ZM15.0792 2.73975C14.7937 3.16839 14.5078 3.59652 14.2229 4.02516C13.2443 5.49756 12.2656 6.96995 11.288 8.44287C11.2333 8.52516 11.163 8.59027 11.2396 8.71631C12.1844 10.2762 13.1214 11.8408 14.0609 13.4038C14.2094 13.6507 14.3589 13.8965 14.551 14.1335C14.7406 10.3397 14.9307 6.546 15.1208 2.75225C15.1068 2.74808 15.0927 2.74391 15.0792 2.74027V2.73975ZM2.18333 7.60329C2.2276 7.64547 2.3375 7.66943 2.38906 7.64443C3.29531 7.19912 4.20729 6.7637 5.09323 6.28141C5.38229 6.12412 5.60469 5.84287 5.85365 5.61422C6.67812 4.85798 7.50156 4.10016 8.32448 3.34235C8.375 3.296 8.43437 3.25068 8.46458 3.19235C8.76042 2.61475 9.05052 2.03402 9.35156 1.43662C8.99271 1.30173 8.65312 1.16995 8.30885 1.05016C8.2625 1.03402 8.18854 1.06631 8.13802 1.09443C7.34115 1.53923 6.52969 1.96058 5.75833 2.446C5.3724 2.6887 5.05781 3.04704 4.71615 3.3585C4.1651 3.8611 3.6151 4.36527 3.0724 4.87672C2.92812 5.01266 2.79688 5.16735 2.6849 5.33089C2.31354 5.87152 1.95365 6.41995 1.57708 6.9835C1.7875 7.20173 1.97917 7.41006 2.18385 7.60381L2.18333 7.60329ZM5.49479 6.86475C5.04427 8.76891 4.59583 10.6627 4.13281 12.6184C6.30365 11.2194 8.425 9.85277 10.5318 8.49547C8.85521 7.95277 7.18385 7.41162 5.49479 6.86527V6.86475ZM14.5255 2.75798C12.6911 3.06422 10.9005 3.3637 9.08698 3.66631C9.70469 5.16891 10.3099 6.64131 10.9328 8.15589C12.1375 6.346 13.3182 4.57256 14.526 2.75798H14.5255ZM5.57031 6.47516C7.2224 7.01162 8.84114 7.53714 10.5073 8.07777C9.88854 6.57048 9.29115 5.11579 8.68125 3.63089C7.64219 4.58089 6.61927 5.51631 5.57031 6.47516ZM2.25156 8.7137C1.66562 10.1142 1.1 11.4668 0.523958 12.8439C1.63125 12.8111 2.70469 12.7793 3.81458 12.7465C3.29323 11.4017 2.78229 10.083 2.25156 8.71318V8.7137ZM3.85313 11.7892C3.86667 11.7866 3.88021 11.783 3.89427 11.7804C4.28906 10.1377 4.6901 8.50589 5.09375 6.7986C4.19375 7.26631 3.33542 7.71214 2.45365 8.171C2.90365 9.34079 3.38333 10.5746 3.85365 11.7892H3.85313ZM13.8615 2.49183C13.3359 2.35277 12.8104 2.21318 12.2849 2.07464C11.5292 1.8762 10.7729 1.67985 10.0177 1.47933C9.92344 1.45433 9.85521 1.43766 9.79948 1.55173C9.53281 2.0986 9.25729 2.64131 8.98646 3.1861C8.97812 3.20277 8.97969 3.22464 8.97344 3.26683C10.6099 3.01891 12.2354 2.77256 13.8604 2.5262C13.8609 2.51475 13.8609 2.50329 13.8615 2.49183ZM10.813 1.24808C12.224 1.6387 13.6354 2.02881 15.0958 2.43298C14.85 1.73298 14.6224 1.08402 14.388 0.416309C13.1885 0.682454 12.0042 0.944954 10.8193 1.20745C10.8172 1.221 10.8151 1.23402 10.813 1.24756V1.24808ZM4.21667 13.2351C3.68594 13.1741 3.14167 13.2304 2.60365 13.2392C2.16146 13.247 1.71979 13.2637 1.27812 13.2772C1.23229 13.2788 1.18698 13.2877 1.14167 13.3366C4.79531 13.6746 8.44896 14.0121 12.1021 14.3502C12.1047 14.334 12.1068 14.3174 12.1094 14.3012C10.938 14.1413 9.76719 13.9814 8.59583 13.8215C7.13646 13.622 5.67969 13.4033 4.21667 13.2345V13.2351ZM0.595833 11.5835C1.06667 10.4913 1.53542 9.39756 2.00833 8.30641C2.05573 8.19704 2.05208 8.12256 1.95938 8.03454C1.76146 7.84652 1.57812 7.64339 1.36198 7.41891C1.06979 8.86162 0.784896 10.2679 0.5 11.6746C0.510417 11.6793 0.521354 11.6845 0.531771 11.6897C0.553646 11.6549 0.580208 11.6215 0.596354 11.584L0.595833 11.5835ZM9.875 0.959538C10.6687 0.75485 11.4745 0.594434 12.275 0.415788C12.3266 0.404329 12.3776 0.387142 12.4286 0.372559C12.426 0.359538 12.4234 0.346517 12.4208 0.333496C11.2932 0.485059 10.1651 0.637142 8.98021 0.796517C9.30312 0.937663 9.55208 1.04287 9.875 0.960059V0.959538Z" fill="#616161"/>
</svg>
